<?xml version="1.0" standalone="no"?><!DOCTYPE svg PUBLIC "-//W3C//DTD SVG 1.1//EN" "http://www.w3.org/Graphics/SVG/1.1/DTD/svg11.dtd"><svg t="1724569773355" class="icon" viewBox="0 0 1024 1024" version="1.1" xmlns="http://www.w3.org/2000/svg" p-id="5332" width="256" height="256" xmlns:xlink="http://www.w3.org/1999/xlink"><path d="M64 176m52 0l120 0q52 0 52 52l0 8q0 52-52 52l-120 0q-52 0-52-52l0-8q0-52 52-52Z" fill="#4F9539" p-id="5333"></path><path d="M64 456m52 0l120 0q52 0 52 52l0 8q0 52-52 52l-120 0q-52 0-52-52l0-8q0-52 52-52Z" fill="#4F9539" p-id="5334"></path><path d="M441.296 736l102.483 103.966C535.743 845.054 526.216 848 516 848H116c-28.719 0-52-23.281-52-52v-8c0-28.719 23.281-52 52-52h325.296z" fill="#4F9539" p-id="5335"></path><path d="M895.615 769.925C834.266 864.398 682.425 894.753 611.351 904c50.138-34.156 115.252-114.627 174.938-192.825 67.31-88.165 105.146-181.933 101.738-240.683-5.938 14.276-22.065 74.79-32.848 91.508-28.442 44.24-65.434 103.786-102.723 152.701-66.824 87.512-129.052 156.632-180.734 178.758-5.772-52.245-18.11-238.396 84.66-333.065C758.038 466.744 959.103 400 959.103 400s13.42 251.432-63.487 369.886v0.039z" fill="#4F9539" p-id="5336"></path><path d="M549.477 800.326c-58.598-70.352-161.214-162.843-204.547-253.434-27.039-55.987-43.48-116.594-48.476-178.694-7.33-65.845 1.62-132.575 9.175-148.33 18.74 59.186 25.823 236.386 98.738 348.662 44.149 68.02 102.663 131.26 147.202 184.098 5.498-60.848 23.647-131.69 72.431-181.588-9.376-63.167-29.559-122.39-68.576-159.424C435.014 297.583 259.837 120 259.837 120s-67.831 383.892 8.276 531.649C340.71 792.71 470.768 835.543 551.7 848a520.885 520.885 0 0 1-2.222-47.674z" fill="#66C04A" p-id="5337"></path></svg>